<?xml version="1.0" encoding="utf-8"?>
<!-- Generator: Adobe Illustrator 23.0.1, SVG Export Plug-In . SVG Version: 6.00 Build 0)  -->
<svg version="1.1" id="Layer_1" xmlns="http://www.w3.org/2000/svg" xmlns:xlink="http://www.w3.org/1999/xlink" x="0px" y="0px"
	 viewBox="0 0 236.02 285.44" style="enable-background:new 0 0 236.02 285.44;" xml:space="preserve">
<style type="text/css">
	.st0{fill:#FFDA10;}
</style>
<g>
	<path class="st0" d="M87.96,172.21c6.32-6.23,13.34-13.15,20.31-20.02c-0.89-2.81-0.89-2.81-3.97-3.08
		c-6.44,6.43-12.98,12.96-19.42,19.39c-1.39,0-2.5,0-3.69,0c-0.35-0.28-0.85-0.51-1.11-0.91c-2.72-4.15-5.54-8.24-8.04-12.52
		c-1.94-3.32-1.64-4.41,1.12-7.23c4.11-4.19,8.32-8.3,12.43-12.49c1.2-1.22,2.23-2.62,3.37-3.98c-0.52-0.98-0.91-1.73-1.31-2.5
		c-0.99,0-1.85,0-3.02,0c-4.08,4.08-8.31,8.33-12.56,12.54c-2.32,2.3-2.72,2.41-6.08,2.18c-2.56-3.74-4.15-8.05-5.63-12.36
		c-1.45-4.19-2.61-8.5-3.59-12.83c-0.46-2.03-0.09-4.24-0.25-6.35c-0.74-9.92,1.72-19.23,5.71-28.15c2.13-4.75,5.16-9.01,8.35-13.18
		c4.32-5.64,9.79-9.84,15.56-13.76c5.29-3.59,11.23-5.74,17.31-7.54c8.16-2.42,16.6-2.43,24.81-1.47
		c9.89,1.16,19.13,4.83,27.41,10.69c7.74,5.48,13.88,12.29,18.72,20.44c4.25,7.15,7.07,14.89,7.99,22.98
		c0.86,7.58,0.85,15.33-1.5,22.92c-2.25,7.26-4.93,14.31-8.45,21.01c-4.57,8.68-9.82,16.94-15.61,24.89
		c-6.24,8.57-12.88,16.75-20.57,24.05c-3.05,2.89-6.27,5.65-10.17,7.46c-4.32,2.01-8.59,1.97-12.94,0.02
		c-3.59-1.6-6.41-4.25-9.36-6.69c-2.49-2.07-4.68-4.5-6.92-6.86c-2.22-2.35-4.46-4.71-6.45-7.25
		C88.64,179.34,86.44,177.03,87.96,172.21z M133.4,79.37c-2.74-0.61-4.73,0.96-6.66,2.9c-11.1,11.15-22.23,22.27-33.36,33.39
		c-0.44,0.44-0.94,0.84-1.31,1.34c-1.93,2.6-3.2,5.4-1.61,8.61c0.7,1.42,1.57,2.84,2.66,3.96c4.61,4.75,9.32,9.4,14.01,14.07
		c4.19,4.17,9.32,4.33,13.49,0.19c11.44-11.34,22.73-22.83,34.22-34.12c3.25-3.2,3.39-9.72-0.08-12.99
		c-5.18-4.88-10.13-10-15.12-15.07C137.95,79.96,136.05,79.01,133.4,79.37z"/>
	<path class="st0" d="M119.5,136.7c-1.45-0.94-2.84-1.55-3.86-2.54c-4.49-4.35-8.86-8.82-13.29-13.22
		c-1.12-1.11-1.98-2.26-1.16-4.21c0.77-0.42,1.73-0.95,2.55-1.4c3.33,0.34,5.73,1.91,7.83,4.21c2.19,2.4,4.62,4.57,6.86,6.93
		C121.61,129.84,121.95,132.49,119.5,136.7z"/>
	<path class="st0" d="M124.19,96.11c0.42-1.63,0.69-2.7,1.05-4.06c1.95,0.61,3.67,1.36,5.09,2.78c3.68,3.71,7.47,7.33,11.05,11.13
		c1.31,1.39,2.16,3.21,3.23,4.85c-3.67,2.07-5.72,1.99-8.73-0.75c-3.31-3.02-6.48-6.2-9.48-9.52
		C125.3,99.33,124.86,97.51,124.19,96.11z"/>
	<path class="st0" d="M124.69,135.56c-2.14-1.63-1.13-3.71-1.33-5.97c4.13-4.27,8.31-8.68,12.61-12.99c2.52-2.53,4.8-2.79,8.31-1.09
		c-0.57,0.92-0.99,1.96-1.71,2.69c-5.61,5.67-11.28,11.28-16.94,16.9C125.46,135.27,125.19,135.32,124.69,135.56z"/>
	<path class="st0" d="M121.37,92.56c0.44,1.15,0.78,2.05,1.27,3.35c-0.61,1.14-1.1,2.76-2.14,3.86c-4.21,4.43-8.6,8.7-12.96,13.06
		c-2.16,0.34-4.31,1.12-6.59-0.78c1.42-1.93,3.21-3.42,4.81-5.07c1.65-1.7,3.35-3.36,5.03-5.04c1.68-1.68,3.3-3.41,5.05-5.02
		C117.5,95.38,118.74,93.22,121.37,92.56z"/>
</g>
</svg>
